{"title":"Silent House 2011 BRRip x264 AAC-UNiQUE ","uid":7431406,"size":752526989,"categoryP":"video","categoryS":"movies","magnet":"?xt=urn:btih:c83632c03b1d1e24c953cec4e0461a361f3dfaa1&amp;dn=Silent+House+2011+BRRip+x264+AAC-UNiQUE+&amp;tr=udp%3A%2F%2Ftracker.openbittorrent.com%3A80&amp;tr=udp%3A%2F%2Fopen.demonii.com%3A1337&amp;tr=udp%3A%2F%2Ftracker.coppersurfer.tk%3A6969&amp;tr=udp%3A%2F%2Fexodus.desync.com%3A6969","seeders":2,"leechers":0,"uploader":"HeroMaster","files":-1,"time":1341956064,"description":"Silent House 2011 BRRip x264 AAC-UNiQUE \n\n\n.........why be the same as everyone else when YOU can be UNiQUE.........\n\n\nGeneral\nComplete name : Silent House 2011 BRRip x264 AAC-UNiQUE.mp4\nFormat : MPEG-4\nFormat profile : Base Media\nCodec ID : isom\nFile size : 700 MiB\nDuration : 1h 25mn\nOverall bit rate mode : Variable\nOverall bit rate : 1 140 Kbps\nEncoded date : UTC 2012-07-10 17:09:38\n\nVideo\nID : 1\nFormat : AVC\nFormat/Info : Advanced Video Codec\nFormat profile : &lt;a class=&quot;__cf_email__&quot; href=&quot;/cdn-cgi/l/email-protection&quot; data-cfemail=&quot;7f371618173f334b514e&quot;&gt;[email&amp;#160;protected]&lt;/a&gt;&lt;script cf-hash='f9e31' type=&quot;text/javascript&quot;&gt;\n/* &lt;![CDATA[ */!function(){try{var t=&quot;currentScript&quot;in document?document.currentScript:function(){for(var t=document.getElementsByTagName(&quot;script&quot;),e=t.length;e--;)if(t[e].getAttribute(&quot;cf-hash&quot;))return t[e]}();if(t&amp;&amp;t.previousSibling){var e,r,n,i,c=t.previousSibling,a=c.getAttribute(&quot;data-cfemail&quot;);if(a){for(e=&quot;&quot;,r=parseInt(a.substr(0,2),16),n=2;a.length-n;n+=2)i=parseInt(a.substr(n,2),16)^r,e+=String.fromCharCode(i);e=document.createTextNode(e),c.parentNode.replaceChild(e,c)}}}catch(u){}}();/* ]]&gt; */&lt;/script&gt;\nFormat settings, CABAC : Yes\nFormat settings, ReFrames : 3 frames\nCodec ID : avc1\nCodec ID/Info : Advanced Video Coding\nDuration : 1h 25mn\nBit rate mode : Variable\nBit rate : 844 Kbps\nMaximum bit rate : 40.0 Mbps\nWidth : 720 pixels\nHeight : 386 pixels\nDisplay aspect ratio : 1.85:1\nFrame rate mode : Constant\nFrame rate : 23.976 fps\nColor space : YUV\nChroma subsampling : 4:2:0\nBit depth : 8 bits\nScan type : Progressive\nBits/(Pixel*Frame) : 0.127\nStream size : 518 MiB (74%)\nWriting library : x264 core 125 r2200 999b753\n\nAudio\nID : 2\nFormat : AAC\nFormat/Info : Advanced Audio Codec\nFormat profile : LC\nCodec ID : 40\nDuration : 1h 25mn\nBit rate mode : Variable\nBit rate : 288 Kbps\nMaximum bit rate : 372 Kbps\nChannel(s) : 6 channels\nChannel positions : Front: L C R, Side: L R, LFE\nSampling rate : 48.0 KHz\nCompression mode : Lossy\nStream size : 180 MiB (26%)\nLanguage : English\nEncoded date : UTC 2012-07-10 17:10:11\n\nSource : 720p.BluRay.x264-Japhson - Thanks!\n\nStoryline\nTrapped inside her family's lakeside retreat, a young woman finds she is unable \nto contact the outside world as events become increasingly ominous in and around the house.\n\niMDB: http://www.imdb.com/title/tt1767382/\n\n\nPoster:\n\n &lt;a href=&quot;\nhttp://i.imgur.com/eDkqB.jpg&quot; rel=&quot;nofollow&quot; target=&quot;_NEW&quot;&gt;\nhttp://i.imgur.com/eDkqB.jpg&lt;/a&gt;\n\n\nScreenshots:\n\n &lt;a href=&quot;\nhttp://i.imgur.com/RCPWa.jpg&quot; rel=&quot;nofollow&quot; target=&quot;_NEW&quot;&gt;\nhttp://i.imgur.com/RCPWa.jpg&lt;/a&gt;\n\n &lt;a href=&quot;\nhttp://i.imgur.com/1c9Ki.jpg&quot; rel=&quot;nofollow&quot; target=&quot;_NEW&quot;&gt;\nhttp://i.imgur.com/1c9Ki.jpg&lt;/a&gt;\n\n &lt;a href=&quot;\nhttp://i.imgur.com/f8MOp.jpg&quot; rel=&quot;nofollow&quot; target=&quot;_NEW&quot;&gt;\nhttp://i.imgur.com/f8MOp.jpg&lt;/a&gt;\n\n\nENJOY!","torrent":{"xt":"urn:btih:c83632c03b1d1e24c953cec4e0461a361f3dfaa1","amp;dn":"Silent+House+2011+BRRip+x264+AAC-UNiQUE+","amp;tr":["udp%3A%2F%2Ftracker.openbittorrent.com%3A80","udp%3A%2F%2Fopen.demonii.com%3A1337","udp%3A%2F%2Ftracker.coppersurfer.tk%3A6969","udp%3A%2F%2Fexodus.desync.com%3A6969"],"infoHash":"c83632c03b1d1e24c953cec4e0461a361f3dfaa1","infoHashBuffer":{"type":"Buffer","data":[200,54,50,192,59,29,30,36,201,83,206,196,224,70,26,54,31,61,250,161]},"announce":[],"urlList":[]}}